<svg width="73" height="19" viewBox="0 0 73 19" fill="none" xmlns="http://www.w3.org/2000/svg">
<path d="M0.625 18V0.499999H3.125V15.825H12.6V18H0.625ZM23.0514 18.2C21.718 18.2 20.4764 17.975 19.3264 17.525C18.193 17.075 17.2097 16.45 16.3764 15.65C15.543 14.8333 14.893 13.8833 14.4264 12.8C13.9597 11.7167 13.7264 10.5333 13.7264 9.25C13.7264 7.96667 13.9597 6.78333 14.4264 5.7C14.893 4.61667 15.543 3.675 16.3764 2.875C17.2097 2.05833 18.193 1.425 19.3264 0.974999C20.4597 0.524999 21.7014 0.3 23.0514 0.3C24.3847 0.3 25.6097 0.524999 26.7264 0.974999C27.8597 1.40833 28.843 2.03333 29.6764 2.85C30.5264 3.65 31.1764 4.59167 31.6264 5.675C32.093 6.75833 32.3264 7.95 32.3264 9.25C32.3264 10.55 32.093 11.7417 31.6264 12.825C31.1764 13.9083 30.5264 14.8583 29.6764 15.675C28.843 16.475 27.8597 17.1 26.7264 17.55C25.6097 17.9833 24.3847 18.2 23.0514 18.2ZM23.0514 15.975C24.018 15.975 24.9097 15.8083 25.7264 15.475C26.5597 15.1417 27.2764 14.675 27.8764 14.075C28.493 13.4583 28.968 12.7417 29.3014 11.925C29.6514 11.1083 29.8264 10.2167 29.8264 9.25C29.8264 8.28333 29.6514 7.39167 29.3014 6.575C28.968 5.75833 28.493 5.05 27.8764 4.45C27.2764 3.83333 26.5597 3.35833 25.7264 3.025C24.9097 2.69167 24.018 2.525 23.0514 2.525C22.068 2.525 21.1597 2.69167 20.3264 3.025C19.5097 3.35833 18.793 3.83333 18.1764 4.45C17.5597 5.05 17.0764 5.75833 16.7264 6.575C16.393 7.39167 16.2264 8.28333 16.2264 9.25C16.2264 10.2167 16.393 11.1083 16.7264 11.925C17.0764 12.7417 17.5597 13.4583 18.1764 14.075C18.793 14.675 19.5097 15.1417 20.3264 15.475C21.1597 15.8083 22.068 15.975 23.0514 15.975ZM44.0475 18.2C42.6975 18.2 41.4558 17.9833 40.3225 17.55C39.1891 17.1 38.2058 16.475 37.3725 15.675C36.5391 14.8583 35.8891 13.9083 35.4225 12.825C34.9558 11.7417 34.7225 10.55 34.7225 9.25C34.7225 7.95 34.9558 6.75833 35.4225 5.675C35.8891 4.59167 36.5391 3.65 37.3725 2.85C38.2225 2.03333 39.2141 1.40833 40.3475 0.974999C41.4808 0.524999 42.7308 0.3 44.0975 0.3C45.4808 0.3 46.7475 0.524999 47.8975 0.974999C49.0475 1.425 50.0225 2.1 50.8225 3L49.2725 4.55C48.5558 3.85 47.7725 3.34167 46.9225 3.025C46.0891 2.69167 45.1808 2.525 44.1975 2.525C43.1975 2.525 42.2641 2.69167 41.3975 3.025C40.5475 3.35833 39.8058 3.825 39.1725 4.425C38.5558 5.025 38.0725 5.74167 37.7225 6.575C37.3891 7.39167 37.2225 8.28333 37.2225 9.25C37.2225 10.2 37.3891 11.0917 37.7225 11.925C38.0725 12.7417 38.5558 13.4583 39.1725 14.075C39.8058 14.675 40.5475 15.1417 41.3975 15.475C42.2475 15.8083 43.1725 15.975 44.1725 15.975C45.1058 15.975 45.9975 15.8333 46.8475 15.55C47.7141 15.25 48.5141 14.7583 49.2475 14.075L50.6725 15.975C49.8058 16.7083 48.7891 17.2667 47.6225 17.65C46.4725 18.0167 45.2808 18.2 44.0475 18.2ZM48.2725 15.65V9.15H50.6725V15.975L48.2725 15.65ZM63.359 18.2C62.0257 18.2 60.784 17.975 59.634 17.525C58.5007 17.075 57.5173 16.45 56.684 15.65C55.8507 14.8333 55.2007 13.8833 54.734 12.8C54.2673 11.7167 54.034 10.5333 54.034 9.25C54.034 7.96667 54.2673 6.78333 54.734 5.7C55.2007 4.61667 55.8507 3.675 56.684 2.875C57.5173 2.05833 58.5007 1.425 59.634 0.974999C60.7673 0.524999 62.009 0.3 63.359 0.3C64.6923 0.3 65.9173 0.524999 67.034 0.974999C68.1673 1.40833 69.1507 2.03333 69.984 2.85C70.834 3.65 71.484 4.59167 71.934 5.675C72.4007 6.75833 72.634 7.95 72.634 9.25C72.634 10.55 72.4007 11.7417 71.934 12.825C71.484 13.9083 70.834 14.8583 69.984 15.675C69.1507 16.475 68.1673 17.1 67.034 17.55C65.9173 17.9833 64.6923 18.2 63.359 18.2ZM63.359 15.975C64.3257 15.975 65.2173 15.8083 66.034 15.475C66.8673 15.1417 67.584 14.675 68.184 14.075C68.8007 13.4583 69.2757 12.7417 69.609 11.925C69.959 11.1083 70.134 10.2167 70.134 9.25C70.134 8.28333 69.959 7.39167 69.609 6.575C69.2757 5.75833 68.8007 5.05 68.184 4.45C67.584 3.83333 66.8673 3.35833 66.034 3.025C65.2173 2.69167 64.3257 2.525 63.359 2.525C62.3757 2.525 61.4673 2.69167 60.634 3.025C59.8173 3.35833 59.1007 3.83333 58.484 4.45C57.8673 5.05 57.384 5.75833 57.034 6.575C56.7007 7.39167 56.534 8.28333 56.534 9.25C56.534 10.2167 56.7007 11.1083 57.034 11.925C57.384 12.7417 57.8673 13.4583 58.484 14.075C59.1007 14.675 59.8173 15.1417 60.634 15.475C61.4673 15.8083 62.3757 15.975 63.359 15.975Z" fill="black"/>
</svg>
